<?xml version="1.0" encoding="utf-8"?>
<!-- Generator: Adobe Illustrator 23.0.3, SVG Export Plug-In . SVG Version: 6.00 Build 0)  -->
<svg version="1.1" xmlns="http://www.w3.org/2000/svg" xmlns:xlink="http://www.w3.org/1999/xlink" x="0px" y="0px"
	 viewBox="0 0 50 50" style="enable-background:new 0 0 50 50;" xml:space="preserve">
<style type="text/css">
	.st0{fill:none;stroke:#FFFFFF;stroke-miterlimit:10;}
	.st1{fill:none;stroke:#FFFFFF;stroke-width:0.5;stroke-miterlimit:10;}
	.st2{fill:#FFFFFF;}
	.st3{fill:#E6E7E8;}
</style>
<g id="Layer_1">
	<path class="st0" d="M24.99,46.86c-12.02,0-21.8-9.78-21.8-21.81c0-12.02,9.78-21.8,21.8-21.8c12.02,0,21.81,9.78,21.81,21.8
		C46.8,37.07,37.02,46.86,24.99,46.86z"/>
	<path class="st0" d="M24.99,6.59c-10.18,0-18.46,8.28-18.46,18.46s8.28,18.46,18.46,18.46s18.46-8.28,18.46-18.46
		S35.17,6.59,24.99,6.59z"/>
	<line class="st1" x1="20.71" y1="3.52" x2="21.4" y2="6.97"/>
	<line class="st0" x1="16.59" y1="4.77" x2="17.94" y2="8.02"/>
	<line class="st1" x1="12.8" y1="6.8" x2="14.75" y2="9.72"/>
	<line class="st0" x1="9.47" y1="9.53" x2="11.96" y2="12.02"/>
	<line class="st1" x1="6.74" y1="12.86" x2="9.67" y2="14.81"/>
	<line class="st0" x1="4.71" y1="16.65" x2="7.96" y2="18"/>
	<line class="st1" x1="3.46" y1="20.77" x2="6.91" y2="21.45"/>
	<line class="st1" x1="3.46" y1="29.33" x2="6.91" y2="28.65"/>
	<line class="st0" x1="4.71" y1="33.45" x2="7.96" y2="32.11"/>
	<line class="st1" x1="6.74" y1="37.25" x2="9.67" y2="35.29"/>
	<line class="st0" x1="9.47" y1="40.57" x2="11.96" y2="38.09"/>
	<line class="st1" x1="12.8" y1="43.3" x2="14.75" y2="40.38"/>
	<line class="st0" x1="16.59" y1="45.33" x2="17.94" y2="42.08"/>
	<line class="st1" x1="20.71" y1="46.58" x2="21.4" y2="43.13"/>
	<line class="st1" x1="29.28" y1="46.58" x2="28.59" y2="43.13"/>
	<line class="st0" x1="33.39" y1="45.33" x2="32.05" y2="42.08"/>
	<line class="st1" x1="37.19" y1="43.3" x2="35.23" y2="40.38"/>
	<line class="st0" x1="40.52" y1="40.57" x2="38.03" y2="38.09"/>
	<line class="st1" x1="43.25" y1="37.25" x2="40.32" y2="35.29"/>
	<line class="st0" x1="45.27" y1="33.45" x2="42.02" y2="32.11"/>
	<line class="st1" x1="46.52" y1="29.33" x2="43.07" y2="28.65"/>
	<line class="st1" x1="46.52" y1="20.77" x2="43.07" y2="21.45"/>
	<line class="st0" x1="45.27" y1="16.65" x2="42.02" y2="18"/>
	<line class="st1" x1="43.25" y1="12.86" x2="40.32" y2="14.81"/>
	<line class="st0" x1="40.52" y1="9.53" x2="38.03" y2="12.02"/>
	<line class="st1" x1="37.19" y1="6.8" x2="35.23" y2="9.72"/>
	<line class="st0" x1="33.39" y1="4.77" x2="32.05" y2="8.02"/>
	<line class="st1" x1="29.28" y1="3.52" x2="28.59" y2="6.97"/>
</g>
<g id="Layer_2">
	<g>
		<polygon class="st2" points="28.11,28.16 48.29,25.05 28.11,21.94 24.99,1.75 21.89,21.87 1.69,24.98 21.87,28.09 24.99,48.35 		
			"/>
	</g>
	<polygon class="st2" points="28.21,25.05 32.83,17.22 24.99,21.83 17.16,17.22 21.77,25.05 17.16,32.89 24.99,28.27 32.83,32.89 	
		"/>
	<circle class="st3" cx="24.99" cy="24.98" r="4.05"/>
</g>
</svg>
